<svg width="511" height="448" viewBox="0 0 511 448" fill="none" xmlns="http://www.w3.org/2000/svg">
<rect width="511" height="447.667" rx="100" fill="#D3CCED"/>
<path d="M420.345 406.234L420.354 405.806C420.548 398.617 422.306 391.556 425.504 385.115C428.702 378.674 433.265 373.006 438.875 368.507C442.042 366.008 445.51 363.917 449.199 362.285L449.551 362.128L449.611 362.509C450.326 367.048 451.457 371.681 451.984 373.737L455.517 359.951L455.909 359.838C457.71 359.309 459.627 359.332 461.414 359.903C463.201 360.474 464.776 361.567 465.937 363.042C467.148 364.516 467.889 366.32 468.066 368.22C468.242 370.12 467.846 372.029 466.928 373.702C466.105 375.236 465.295 376.837 464.512 378.385C461.822 383.705 459.04 389.206 454.987 393.479C451.887 396.684 448.11 399.156 443.932 400.714C439.754 402.273 435.281 402.878 430.84 402.487L420.345 406.234Z" fill="#F2F2F2"/>
<path d="M376.294 399.859L370.147 399.858L367.221 376.144L376.295 376.145L376.294 399.859Z" fill="#FFB6B6"/>
<path d="M376.511 406.272L357.605 406.272V406.033C357.605 404.081 358.38 402.209 359.76 400.829C361.14 399.449 363.012 398.674 364.964 398.674H364.964L368.417 396.054L374.861 398.674L376.511 398.674L376.511 406.272Z" fill="#2F2E41"/>
<path d="M439.934 382.538L435.077 386.307L418.226 369.367L425.395 363.803L439.934 382.538Z" fill="#FFB6B6"/>
<path d="M444.038 387.472L429.102 399.063L428.955 398.874C427.759 397.333 427.224 395.379 427.468 393.442C427.712 391.506 428.715 389.746 430.257 388.549L430.257 388.549L431.379 384.362L438.075 382.481L439.379 381.469L444.038 387.472Z" fill="#2F2E41"/>
<path d="M413.34 267.801C413.34 267.801 412.921 274.221 412.391 283.4C412.305 284.905 412.816 286.54 412.725 288.178C412.664 289.264 412.002 290.32 411.94 291.453C411.875 292.649 412.79 293.707 412.725 294.943C412.661 296.151 411.617 297.537 411.554 298.773C410.877 312.08 408.42 328.009 410.88 332.462C412.092 334.657 430.562 365.06 430.562 365.06C430.562 365.06 421.951 377.976 419.491 373.671C416.241 367.984 391.198 341.38 391.198 336.3C391.198 331.226 385.404 293.197 385.404 293.197L381.364 315.702L379.512 320.161L380.094 322.779L378.897 326.311L378.832 329.808L377.667 336.3C377.667 336.3 381.173 386.882 379.198 388.291C377.218 389.705 367.629 392.246 366.497 389.705C365.372 387.165 361.06 336.915 361.06 336.915C361.06 336.915 359.879 313.887 358.6 292.483C358.526 291.241 357.653 289.74 357.585 288.516C357.505 287.095 358.059 285.25 357.985 283.872C357.905 282.292 357.204 281.178 357.136 279.665C356.613 267.973 356.533 258.76 357.468 257.357C360.291 253.126 362.832 249.743 362.832 249.743C362.832 249.743 403.179 239.865 413.34 252.56L413.34 267.801Z" fill="#212127"/>
<path d="M377.052 146.714L386.78 146.17L394.112 150.172L414.5 265.628C414.5 265.628 393.658 275.262 380.742 271.571C367.826 267.881 354.224 268.089 354.224 268.089L364.136 157.785L372.131 150.405L377.052 146.714Z" fill="#3C3C3C"/>
<path d="M393.282 149.162L408.34 155.312C410.653 155.425 412.859 156.317 414.599 157.843C416.34 159.37 417.512 161.44 417.925 163.718L416.926 193.458L411.495 207.605L415.368 239.834L413.34 243.894L415.092 248.037C412.52 252.213 413.044 257.684 414.57 263.576H412.725L409.035 262.961C409.035 262.961 400.91 265.781 399.246 255.651C394.889 229.132 392.428 240.818 392.428 240.818L390.283 158.541L393.282 149.162Z" fill="#2F2E41"/>
<path d="M372.747 149.175L358.68 163.923C356.367 164.035 354.161 164.928 352.421 166.454C350.681 167.98 349.508 170.051 349.095 172.329L354.91 218.061L352.181 235.609L353.68 239.588L352.594 244.086L354.295 248.199L353.065 253.735L354.91 261.73L364.136 259.27L364.065 252.712L366.525 163.529L372.747 149.175Z" fill="#2F2E41"/>
<path d="M325.834 224.985L306.672 238.889C305.938 238.928 305.227 239.158 304.61 239.559C303.994 239.959 303.494 240.514 303.16 241.169C302.827 241.824 302.672 242.556 302.71 243.29C302.749 244.024 302.981 244.735 303.382 245.351C303.783 245.967 304.339 246.466 304.995 246.799C305.65 247.132 306.382 247.286 307.116 247.246C307.85 247.206 308.56 246.974 309.176 246.572C309.791 246.17 310.29 245.614 310.622 244.958L336.679 231.048L325.834 224.985Z" fill="#FFB6B6"/>
<path d="M352.449 166.396C348.808 168.076 339.811 211.081 337.17 211.993C334.53 212.905 335.538 212.768 335.168 213.529C334.797 214.29 334.707 217.699 332.173 218.099C329.638 218.499 316.245 230.709 316.245 230.709L319.64 242.025C319.64 242.025 345.412 227.302 352.518 219.148C359.624 210.995 363.45 169.065 363.45 169.065L364.177 164.881C364.177 164.881 356.091 164.717 352.449 166.396Z" fill="#2F2E41"/>
<path d="M410.242 219.307L393.165 235.705C392.443 235.843 391.77 236.169 391.214 236.65C390.658 237.131 390.239 237.75 389.998 238.445C389.758 239.139 389.704 239.885 389.843 240.607C389.982 241.328 390.309 242.001 390.791 242.556C391.272 243.111 391.892 243.53 392.587 243.77C393.281 244.01 394.027 244.062 394.749 243.922C395.47 243.782 396.142 243.455 396.697 242.972C397.252 242.49 397.67 241.87 397.909 241.175L421.814 223.827L410.242 219.307Z" fill="#FFB6B6"/>
<path d="M412.725 170.087C409.348 172.249 422.182 203.62 419.691 204.885C417.201 206.15 418.181 205.876 417.918 206.68C417.655 207.485 418.033 210.874 415.577 211.617C413.121 212.361 401.527 226.29 401.527 226.29L406.44 237.035C406.44 237.035 429.952 218.92 435.874 209.87C441.797 200.82 437.943 197.764 437.943 197.764C430.595 182.159 423.723 156.709 413.34 158.401C413.34 158.401 416.103 167.924 412.725 170.087Z" fill="#2F2E41"/>
<path d="M379.138 144.279C388.244 144.279 395.626 136.898 395.626 127.792C395.626 118.686 388.244 111.304 379.138 111.304C370.033 111.304 362.651 118.686 362.651 127.792C362.651 136.898 370.033 144.279 379.138 144.279Z" fill="#FFB6B6"/>
<path d="M395.834 138.416C395.834 138.416 392.203 139.411 390.09 139.966C390.199 138.393 390.88 136.921 391.226 135.383C391.572 133.844 391.497 132.035 390.353 130.949C389.21 129.863 386.829 130.286 386.645 131.849C385.678 129.781 384.709 127.709 383.737 125.633C380.968 131.333 375.307 126.476 369.134 127.916C365.985 128.658 362.038 128.339 360.375 125.564C361.31 124.78 362.097 123.835 362.701 122.774C361.741 123.055 360.743 123.182 359.744 123.148C359.766 122.156 360.027 121.183 360.504 120.313C360.981 119.442 361.661 118.699 362.485 118.145C363.372 117.565 361.175 115.499 361.95 114.772C363.539 113.288 364.606 114.296 365.544 112.34C366.15 111.131 367.082 110.115 368.236 109.41C369.39 108.704 370.719 108.337 372.072 108.349C374.77 108.413 379.605 108.387 380.651 110.872C383.988 108.688 388.632 109.305 391.893 111.597C394.604 113.494 397.689 119.227 398.37 122.464C399.051 125.701 397.55 135.595 395.834 138.416Z" fill="#2F2E41"/>
<path d="M191.612 102.123H86.0379C84.1392 102.147 82.3016 101.451 80.8952 100.175C79.4888 98.8995 78.6179 97.1382 78.4578 95.246C78.3894 94.2367 78.529 93.2242 78.868 92.2711C79.2071 91.3181 79.7383 90.4448 80.4287 89.7056C81.1192 88.9663 81.9541 88.3767 82.8818 87.9735C83.8095 87.5702 84.8102 87.3619 85.8217 87.3613H191.612C193.569 87.3613 195.447 88.1389 196.831 89.5231C198.215 90.9072 198.992 92.7845 198.992 94.742C198.992 96.6995 198.215 98.5768 196.831 99.961C195.447 101.345 193.569 102.123 191.612 102.123H191.612Z" fill="url(#paint0_linear_148_510)"/>
<path d="M252.34 114.116H78.7486C78.5855 114.116 78.429 114.052 78.3137 113.936C78.1983 113.821 78.1335 113.664 78.1335 113.501C78.1335 113.338 78.1983 113.182 78.3137 113.066C78.429 112.951 78.5855 112.886 78.7486 112.886H252.34C252.503 112.886 252.66 112.951 252.775 113.066C252.891 113.182 252.955 113.338 252.955 113.501C252.955 113.664 252.891 113.821 252.775 113.936C252.66 114.052 252.503 114.116 252.34 114.116Z" fill="#3C3C3C"/>
<path d="M245.122 102.43H85.8218C83.7827 102.43 81.8272 101.62 80.3854 100.179C78.9436 98.7368 78.1335 96.7812 78.1335 94.7422C78.1335 92.7031 78.9436 90.7476 80.3854 89.3058C81.8272 87.864 83.7827 87.054 85.8218 87.054H245.122C247.161 87.054 249.116 87.864 250.558 89.3058C252 90.7476 252.81 92.7031 252.81 94.7422C252.81 96.7812 252 98.7368 250.558 100.179C249.116 101.62 247.161 102.43 245.122 102.43ZM85.8218 88.2841C84.109 88.2841 82.4663 88.9645 81.2552 90.1756C80.0441 91.3867 79.3637 93.0294 79.3637 94.7422C79.3637 96.455 80.0441 98.0976 81.2552 99.3088C82.4663 100.52 84.109 101.2 85.8218 101.2H245.122C246.835 101.2 248.477 100.52 249.688 99.3088C250.899 98.0976 251.58 96.455 251.58 94.7422C251.58 93.0294 250.899 91.3867 249.688 90.1756C248.477 88.9645 246.835 88.2841 245.122 88.2841H85.8218Z" fill="#3C3C3C"/>
<path d="M144.252 159.938H86.0379C84.1392 159.963 82.3016 159.267 80.8952 157.991C79.4888 156.715 78.6179 154.954 78.4578 153.061C78.3894 152.052 78.529 151.04 78.868 150.087C79.2071 149.134 79.7383 148.26 80.4287 147.521C81.1192 146.782 81.9541 146.192 82.8818 145.789C83.8095 145.386 84.8102 145.177 85.8217 145.177H144.252C146.21 145.177 148.087 145.954 149.471 147.339C150.855 148.723 151.633 150.6 151.633 152.557C151.633 154.515 150.855 156.392 149.471 157.776C148.087 159.161 146.21 159.938 144.252 159.938H144.252Z" fill="url(#paint1_linear_148_510)"/>
<path d="M252.34 171.932H78.7486C78.5855 171.932 78.429 171.867 78.3137 171.752C78.1983 171.636 78.1335 171.48 78.1335 171.317C78.1335 171.154 78.1983 170.997 78.3137 170.882C78.429 170.766 78.5855 170.702 78.7486 170.702H252.34C252.503 170.702 252.66 170.766 252.775 170.882C252.891 170.997 252.955 171.154 252.955 171.317C252.955 171.48 252.891 171.636 252.775 171.752C252.66 171.867 252.503 171.932 252.34 171.932Z" fill="#3C3C3C"/>
<path d="M245.122 160.246H85.8218C83.7827 160.246 81.8272 159.436 80.3854 157.994C78.9436 156.552 78.1335 154.597 78.1335 152.558C78.1335 150.519 78.9436 148.563 80.3854 147.121C81.8272 145.679 83.7827 144.869 85.8218 144.869H245.122C247.161 144.869 249.116 145.679 250.558 147.121C252 148.563 252.81 150.519 252.81 152.558C252.81 154.597 252 156.552 250.558 157.994C249.116 159.436 247.161 160.246 245.122 160.246ZM85.8218 146.1C84.109 146.1 82.4663 146.78 81.2552 147.991C80.0441 149.202 79.3637 150.845 79.3637 152.558C79.3637 154.27 80.0441 155.913 81.2552 157.124C82.4663 158.335 84.109 159.016 85.8218 159.016H245.122C246.835 159.016 248.477 158.335 249.688 157.124C250.899 155.913 251.58 154.27 251.58 152.558C251.58 150.845 250.899 149.202 249.688 147.991C248.477 146.78 246.835 146.1 245.122 146.1H85.8218Z" fill="#3C3C3C"/>
<path d="M222.365 217.754H86.0379C84.1392 217.778 82.3016 217.082 80.8952 215.807C79.4888 214.531 78.6179 212.769 78.4578 210.877C78.3894 209.868 78.529 208.855 78.868 207.902C79.2071 206.949 79.7383 206.076 80.4287 205.337C81.1192 204.597 81.9541 204.008 82.8818 203.605C83.8095 203.201 84.8102 202.993 85.8217 202.992H222.365C224.322 202.992 226.199 203.77 227.584 205.154C228.968 206.538 229.745 208.416 229.745 210.373C229.745 212.331 228.968 214.208 227.584 215.592C226.199 216.976 224.322 217.754 222.365 217.754H222.365Z" fill="url(#paint2_linear_148_510)"/>
<path d="M252.34 229.747H78.7486C78.5855 229.747 78.429 229.683 78.3137 229.567C78.1983 229.452 78.1335 229.296 78.1335 229.132C78.1335 228.969 78.1983 228.813 78.3137 228.697C78.429 228.582 78.5855 228.517 78.7486 228.517H252.34C252.503 228.517 252.66 228.582 252.775 228.697C252.891 228.813 252.955 228.969 252.955 229.132C252.955 229.296 252.891 229.452 252.775 229.567C252.66 229.683 252.503 229.747 252.34 229.747Z" fill="#3C3C3C"/>
<path d="M245.122 218.061H85.8218C83.7827 218.061 81.8272 217.251 80.3854 215.809C78.9436 214.368 78.1335 212.412 78.1335 210.373C78.1335 208.334 78.9436 206.378 80.3854 204.937C81.8272 203.495 83.7827 202.685 85.8218 202.685H245.122C247.161 202.685 249.116 203.495 250.558 204.937C252 206.378 252.81 208.334 252.81 210.373C252.81 212.412 252 214.368 250.558 215.809C249.116 217.251 247.161 218.061 245.122 218.061ZM85.8218 203.915C84.109 203.915 82.4663 204.595 81.2552 205.806C80.0441 207.018 79.3637 208.66 79.3637 210.373C79.3637 212.086 80.0441 213.728 81.2552 214.94C82.4663 216.151 84.109 216.831 85.8218 216.831H245.122C246.835 216.831 248.477 216.151 249.688 214.94C250.899 213.728 251.58 212.086 251.58 210.373C251.58 208.66 250.899 207.018 249.688 205.806C248.477 204.595 246.835 203.915 245.122 203.915H85.8218Z" fill="#3C3C3C"/>
<path d="M181.595 94.6208H180.365V47.2349H269.337V48.465H181.595V94.6208Z" fill="#3C3C3C"/>
<path d="M273.14 54.6948C277.198 54.6948 280.488 51.4053 280.488 47.3474C280.488 43.2896 277.198 40 273.14 40C269.082 40 265.793 43.2896 265.793 47.3474C265.793 51.4053 269.082 54.6948 273.14 54.6948Z" fill="#3C3C3C"/>
<path d="M138.893 152.436H140.123V125.347H51.1504V126.577H138.893V152.436Z" fill="#3C3C3C"/>
<path d="M47.3474 132.807C51.4053 132.807 54.6948 129.518 54.6948 125.46C54.6948 121.402 51.4053 118.112 47.3474 118.112C43.2896 118.112 40 121.402 40 125.46C40 129.518 43.2896 132.807 47.3474 132.807Z" fill="#3C3C3C"/>
<path d="M222.189 212.34H220.958V246.194H296.4V244.964H222.189V212.34Z" fill="#3C3C3C"/>
<path d="M300.203 253.429C304.261 253.429 307.55 250.139 307.55 246.082C307.55 242.024 304.261 238.734 300.203 238.734C296.145 238.734 292.855 242.024 292.855 246.082C292.855 250.139 296.145 253.429 300.203 253.429Z" fill="#3C3C3C"/>
<path d="M470.268 407.478L303.126 407.667C303.029 407.668 302.934 407.649 302.845 407.612C302.756 407.576 302.675 407.522 302.606 407.454C302.538 407.386 302.484 407.305 302.447 407.216C302.41 407.127 302.391 407.031 302.391 406.935C302.391 406.839 302.41 406.743 302.447 406.654C302.484 406.565 302.538 406.484 302.606 406.416C302.675 406.348 302.756 406.295 302.845 406.258C302.934 406.221 303.029 406.202 303.126 406.203L470.268 406.014C470.462 406.014 470.648 406.091 470.785 406.228C470.923 406.366 471 406.552 471 406.746C471 406.94 470.923 407.126 470.785 407.264C470.648 407.401 470.462 407.478 470.268 407.478Z" fill="#CACACA"/>
<path d="M402.933 149.177C402.55 148.575 401.947 148.147 401.254 147.983C400.56 147.818 399.829 147.93 399.217 148.295C400.121 147.039 399.44 144.892 398.022 144.024C396.417 143.041 394.389 143.204 392.516 143.399L377.166 145.002C375.396 145.187 373.577 145.386 372.002 146.214C370.426 147.041 369.13 148.656 369.221 150.433C368.018 149.991 366.733 149.817 365.456 149.922C364.194 150.121 362.95 151.043 362.815 152.313C362.599 154.352 365.021 155.529 366.993 156.088C370.655 157.125 374.317 158.163 377.978 159.2L376.849 159.442C384.055 160.072 391.309 159.022 398.042 156.376C399.584 155.768 401.146 155.039 402.226 153.781C403.307 152.523 403.778 150.604 402.933 149.177Z" fill="#3C3C3C"/>
<defs>
<linearGradient id="paint0_linear_148_510" x1="60.5993" y1="86.1508" x2="64.5808" y2="121.508" gradientUnits="userSpaceOnUse">
<stop stop-color="#2D47CB"/>
<stop offset="1" stop-color="#651CE3"/>
</linearGradient>
<linearGradient id="paint1_linear_148_510" x1="67.6085" y1="143.966" x2="74.0286" y2="178.581" gradientUnits="userSpaceOnUse">
<stop stop-color="#2D47CB"/>
<stop offset="1" stop-color="#651CE3"/>
</linearGradient>
<linearGradient id="paint2_linear_148_510" x1="56.0479" y1="201.782" x2="59.2347" y2="237.302" gradientUnits="userSpaceOnUse">
<stop stop-color="#2D47CB"/>
<stop offset="1" stop-color="#651CE3"/>
</linearGradient>
</defs>
</svg>
