<svg width="37" height="36" viewBox="0 0 37 36" fill="none" xmlns="http://www.w3.org/2000/svg">
<g clip-path="url(#clip0_454_2059)">
<path d="M1.35718 13.6667C1.35718 9.23292 1.35718 7.01604 2.22004 5.32257C2.97904 3.83296 4.19014 2.62186 5.67975 1.86287C7.37322 1 9.5901 1 14.0238 1H23.6905C28.1243 1 30.3411 1 32.0346 1.86287C33.5242 2.62186 34.7353 3.83296 35.4943 5.32257C36.3572 7.01604 36.3572 9.23292 36.3572 13.6667V23.3333C36.3572 27.7671 36.3572 29.984 35.4943 31.6774C34.7353 33.167 33.5242 34.3781 32.0346 35.1371C30.3411 36 28.1243 36 23.6905 36H14.0238C9.59009 36 7.37322 36 5.67975 35.1371C4.19014 34.3781 2.97904 33.167 2.22004 31.6774C1.35718 29.984 1.35718 27.7671 1.35718 23.3333V13.6667Z" fill="#00005B"/>
<path d="M16.0938 22.9549H10.6702L9.56666 26.4774C9.53602 26.6081 9.41574 26.7006 9.28489 26.6942H6.53785C6.38119 26.6942 6.32641 26.6059 6.3735 26.4293L11.0693 12.6158C11.1163 12.4714 11.1632 12.3301 11.2102 12.1454C11.2716 11.8241 11.3031 11.4975 11.3041 11.1701C11.2907 11.0734 11.3741 10.9877 11.4685 11.0015H15.2016C15.311 11.0015 15.3736 11.0417 15.3895 11.122L20.7193 26.4533C20.7662 26.614 20.7192 26.6943 20.5784 26.6942H17.526C17.419 26.7063 17.3168 26.633 17.2913 26.5256L16.0938 22.9549ZM11.5154 19.9847H15.2251C14.6156 17.902 13.9278 15.8466 13.3703 13.7477C12.7385 15.925 12.1552 17.9442 11.5154 19.9847Z" fill="#9999FF"/>
<path d="M24.6832 21.5947C24.899 23.3833 26.401 24.2361 28.0642 24.1997C29.002 24.1813 30.0043 24.0357 30.8806 23.6811C30.9587 23.6171 30.998 23.657 30.998 23.8015V26.0892C31.0054 26.2082 30.9557 26.3145 30.8571 26.3782C29.768 26.873 28.5176 27.0222 27.3363 27.0032C23.8141 27.0032 21.3951 24.5214 21.3961 20.9107C21.3869 17.4889 23.6068 14.6022 27.0546 14.6022C29.9771 14.5264 32.0005 16.8663 32.0087 19.7789C32.0087 20.3094 31.9791 20.8416 31.9148 21.3682C31.9023 21.4767 31.8099 21.5609 31.7034 21.5609C29.3693 21.5609 27.0237 21.5947 24.6832 21.5947ZM24.6832 19.4009C25.984 19.4009 27.2924 19.4469 28.5924 19.3889C28.7878 19.3689 28.9329 19.3319 28.9329 19.1286C28.9058 18.0489 27.9946 17.1609 26.9372 17.2022C25.6596 17.123 24.842 18.2014 24.6832 19.4009Z" fill="#9999FF"/>
</g>
<defs>
<clipPath id="clip0_454_2059">
<rect width="36" height="36" fill="white" transform="translate(0.857178)"/>
</clipPath>
</defs>
</svg>
