<svg width="37" height="36" viewBox="0 0 37 36" fill="none" xmlns="http://www.w3.org/2000/svg">
<path d="M0.857178 13.0286C0.857178 8.46814 0.857178 6.18793 1.7447 4.44608C2.52538 2.9139 3.77108 1.6682 5.30325 0.887518C7.04511 0 9.32532 0 13.8857 0H23.8286C28.389 0 30.6692 0 32.4111 0.887518C33.9433 1.6682 35.189 2.9139 35.9697 4.44608C36.8572 6.18793 36.8572 8.46814 36.8572 13.0286V22.9714C36.8572 27.5319 36.8572 29.8121 35.9697 31.5539C35.189 33.0861 33.9433 34.3318 32.4111 35.1125C30.6692 36 28.389 36 23.8286 36H13.8857C9.32532 36 7.04511 36 5.30325 35.1125C3.77108 34.3318 2.52538 33.0861 1.7447 31.5539C0.857178 29.8121 0.857178 27.5319 0.857178 22.9714V13.0286Z" fill="#330000"/>
<path d="M18.3023 22.6238H12.7236L11.5886 26.2401C11.5571 26.3744 11.4334 26.4696 11.2988 26.463H8.47326C8.31212 26.463 8.25577 26.3722 8.3042 26.1905L13.1342 11.9235C13.1825 11.7749 13.2308 11.6056 13.2791 11.4157C13.3423 11.0852 13.3746 10.7493 13.3757 10.4126C13.3619 10.3131 13.4493 10.2252 13.5448 10.2392H17.3846C17.4971 10.2392 17.5615 10.2804 17.5778 10.363L23.0599 26.2153C23.1082 26.3806 23.0598 26.4631 22.9149 26.463H19.7754C19.6653 26.4755 19.5602 26.4 19.5339 26.2896L18.3023 22.6238ZM13.593 19.5029H17.4087C16.7818 17.3606 16.0743 15.2465 15.5009 13.0876C14.8822 15.2502 14.2072 17.404 13.593 19.5029Z" fill="#FF9A00"/>
<path d="M26.3198 12.8646C26.0735 12.8748 25.8279 12.8315 25.599 12.7376C25.3701 12.6437 25.1631 12.5013 24.9916 12.3197C24.8205 12.1303 24.6876 11.908 24.6006 11.6657C24.5135 11.4234 24.474 11.1659 24.4844 10.9079C24.4756 10.6524 24.5194 10.3979 24.6131 10.1611C24.7067 9.92418 24.848 9.71022 25.0277 9.53316C25.2057 9.35793 25.4158 9.22064 25.6459 9.12924C25.876 9.03783 26.1214 8.99412 26.3681 9.00063C26.9477 9.00063 27.4025 9.17814 27.7326 9.53316C27.8992 9.71766 28.0286 9.93405 28.1136 10.1699C28.1985 10.4058 28.2373 10.6566 28.2276 10.9079C28.2377 11.1669 28.197 11.4253 28.1078 11.6678C28.0186 11.9104 27.8828 12.1321 27.7084 12.3197C27.5262 12.5039 27.3087 12.6475 27.0697 12.7413C26.8307 12.8351 26.5754 12.8771 26.3198 12.8646ZM24.6534 26.2152V14.3755C24.6534 14.2269 24.7176 14.1526 24.8466 14.1526H27.8171C27.9458 14.1526 28.0102 14.2269 28.0103 14.3755V26.2152C28.0103 26.3805 27.9459 26.4631 27.8171 26.4629H24.8708C24.7259 26.4629 24.6535 26.3804 24.6534 26.2152Z" fill="#FF9A00"/>
</svg>
