<svg width="37" height="36" viewBox="0 0 37 36" fill="none" xmlns="http://www.w3.org/2000/svg">
<path fill-rule="evenodd" clip-rule="evenodd" d="M18.8572 18C18.8572 15.8697 20.5841 14.1428 22.7143 14.1428C24.8446 14.1428 26.5715 15.8697 26.5715 18C26.5715 20.1302 24.8446 21.8571 22.7143 21.8571C20.5841 21.8571 18.8572 20.1302 18.8572 18Z" fill="#63A4EF"/>
<path fill-rule="evenodd" clip-rule="evenodd" d="M11.1429 25.8684C11.1429 23.7381 12.8698 22.0112 15 22.0112H18.8572V25.8684C18.8572 27.9986 17.1303 29.7255 15 29.7255C12.8698 29.7255 11.1429 27.9986 11.1429 25.8684Z" fill="#5BE780"/>
<path fill-rule="evenodd" clip-rule="evenodd" d="M18.8572 6.42847V14.1428H22.7143C24.8446 14.1428 26.5715 12.4159 26.5715 10.2856C26.5715 8.15537 24.8446 6.42847 22.7143 6.42847H18.8572Z" fill="#FF8D6D"/>
<path fill-rule="evenodd" clip-rule="evenodd" d="M11.1429 10.2856C11.1429 12.4159 12.8698 14.1428 15 14.1428H18.8572V6.42847H15C12.8698 6.42847 11.1429 8.15537 11.1429 10.2856Z" fill="#FF4A4A"/>
<path fill-rule="evenodd" clip-rule="evenodd" d="M11.1429 18.0771C11.1429 20.2074 12.8698 21.9343 15 21.9343H18.8572V14.22H15C12.8698 14.22 11.1429 15.9469 11.1429 18.0771Z" fill="#B66CF1"/>
</svg>
