<svg width="37" height="36" viewBox="0 0 37 36" fill="none" xmlns="http://www.w3.org/2000/svg">
<path d="M0.714294 0H36.7143V36H0.714294V0Z" fill="#FFCA28"/>
<path d="M22.5714 29.9413L25.222 28.1874C25.4297 28.84 26.7451 30.3899 28.4066 30.3899C30.0681 30.3899 30.8396 29.4824 30.8396 28.8808C30.8396 27.2413 29.1429 26.6632 28.3281 26.3856C28.1952 26.3403 28.0858 26.303 28.011 26.2704C27.9726 26.2537 27.9146 26.2315 27.8401 26.2031C26.9338 25.8568 23.5901 24.5793 23.5901 20.8763C23.5901 16.7976 27.5264 16.3286 28.4165 16.3286C28.9988 16.3286 31.7989 16.3999 33.1934 19.0205L30.622 20.8151C30.0583 19.6731 29.1216 19.2958 28.5451 19.2958C27.1209 19.2958 26.8242 20.3399 26.8242 20.8151C26.8242 22.1487 28.3715 22.7464 29.678 23.2511C30.0198 23.3832 30.3452 23.5088 30.622 23.6396C32.0462 24.3126 34.1429 25.4139 34.1429 28.8808C34.1429 30.6173 32.6864 33.4286 29.0198 33.4286C24.0945 33.4286 22.789 30.4715 22.5714 29.9413Z" fill="#3E3E3E"/>
<path d="M9.71429 30.2895L12.4769 28.5366C12.6933 29.1889 13.5345 30.3915 14.755 30.3915C15.9755 30.3915 16.6001 29.1379 16.6001 28.5366V16.7143H19.9977V28.5366C20.0527 30.1672 19.1483 33.4286 15.157 33.4286C11.4873 33.4286 9.96169 31.2476 9.71429 30.2895Z" fill="#3E3E3E"/>
</svg>
