<svg width="37" height="36" viewBox="0 0 37 36" fill="none" xmlns="http://www.w3.org/2000/svg">
<path d="M0.857178 13.0286C0.857178 8.46814 0.857178 6.18793 1.7447 4.44608C2.52538 2.9139 3.77108 1.6682 5.30325 0.887518C7.04511 0 9.32532 0 13.8857 0H23.8286C28.389 0 30.6692 0 32.4111 0.887518C33.9433 1.6682 35.189 2.9139 35.9697 4.44608C36.8572 6.18793 36.8572 8.46814 36.8572 13.0286V22.9714C36.8572 27.5319 36.8572 29.8121 35.9697 31.5539C35.189 33.0861 33.9433 34.3318 32.4111 35.1125C30.6692 36 28.389 36 23.8286 36H13.8857C9.32532 36 7.04511 36 5.30325 35.1125C3.77108 34.3318 2.52538 33.0861 1.7447 31.5539C0.857178 29.8121 0.857178 27.5319 0.857178 22.9714V13.0286Z" fill="#001E36"/>
<path d="M19.7632 26.5115H10.2481C10.087 26.5115 10.0065 26.4206 10.0066 26.239V10.5105C9.98878 10.3826 10.0992 10.2693 10.224 10.2876H13.1703C13.2673 10.2736 13.3528 10.363 13.3393 10.461V23.3906H20.2704C20.4153 23.3906 20.4716 23.4649 20.4394 23.6135L20.0047 26.2886C20.001 26.4232 19.8904 26.5101 19.7632 26.5115Z" fill="#31A8FF"/>
<path d="M22.1805 14.1838H24.8129C24.9581 14.1851 25.0884 14.288 25.1268 14.4315C25.3198 14.8709 25.3435 15.4006 25.3442 15.8749C25.7956 15.3358 26.34 14.8866 26.9501 14.5498C27.6045 14.17 28.3464 13.9776 29.0981 13.9925C29.2229 13.9742 29.3333 14.0875 29.3155 14.2154V17.2125C29.3155 17.3282 29.2347 17.3859 29.074 17.3859C27.9598 17.307 26.2251 17.577 25.4155 18.4757V26.2686C25.4155 26.4172 25.3511 26.4915 25.2223 26.4915H22.3979C22.2592 26.5119 22.1368 26.3839 22.1563 26.2438V17.7822C22.1563 16.6483 22.1803 15.4804 22.0115 14.3573C21.9855 14.2539 22.082 14.1578 22.1805 14.1838Z" fill="#31A8FF"/>
</svg>
