<svg width="37" height="36" viewBox="0 0 37 36" fill="none" xmlns="http://www.w3.org/2000/svg">
<path fill-rule="evenodd" clip-rule="evenodd" d="M10.681 4.72345C10.5707 4.88524 10.4471 5.06674 10.3303 5.23649C10.2034 5.42413 10.0363 5.67136 9.86919 5.91861C9.702 6.16596 9.53481 6.41333 9.40783 6.60105L8.95081 7.28112L8.95504 9.10052C8.40915 9.36549 7.96906 9.58629 7.62629 9.75851L7 10.0721L7.02539 22.0793C8.6996 22.9049 9.84657 23.47 10.6164 23.8494C11.3702 24.2208 11.7625 24.414 11.9341 24.4993C12.2854 24.6715 12.6832 24.8658 12.8228 24.932C12.9401 24.9877 13.3293 25.1805 13.7469 25.3874C13.8263 25.4267 13.9067 25.4666 13.9865 25.5061C14.4859 25.7534 14.9217 25.9742 14.9513 25.9963C14.9852 26.0228 15.256 25.908 15.7977 25.6342C16.2335 25.4134 17.1687 24.9497 17.8797 24.6008C18.5906 24.252 19.6358 23.7353 20.2071 23.4527C20.2709 23.4211 20.3382 23.3878 20.4081 23.3532C20.9645 23.0778 21.6865 22.7204 22.1113 22.5164C22.3783 22.3882 22.6189 22.2711 22.7801 22.1925C22.9076 22.1304 22.9873 22.0925 22.9873 22.0925C22.9915 22.0881 23 19.3766 23 16.069V10.05C21.6078 9.36107 21.1761 9.13585 21.1465 9.10936C21.1042 9.06961 21.0915 8.83998 21.0957 8.16432V7.26787C20.0251 5.70901 19.53 4.98478 19.3057 4.65357C19.0815 4.31795 18.8783 4.04416 18.8529 4.04416C18.8276 4.04416 18.3875 4.66682 17.8712 5.42638C17.6332 5.77443 17.4016 6.11498 17.2127 6.39268C16.9917 6.71748 16.8293 6.95629 16.7837 7.02057L16.6313 7.23696C16.479 7.03823 16.4028 6.93225 16.3647 6.87043C16.3266 6.8086 16.0854 6.4509 15.8273 6.07554C15.5692 5.70017 15.2941 5.28507 15.2137 5.16142C15.1333 5.03335 15.0487 4.92737 15.0233 4.92737C14.9979 4.92737 14.7144 5.31598 14.3843 5.79733C14.2285 6.0274 14.0689 6.26353 13.9346 6.46231C13.7878 6.6794 13.6712 6.85195 13.6226 6.92342C13.5337 7.06473 13.4406 7.17955 13.4152 7.17955C13.3898 7.17955 13.2629 7.0294 13.1317 6.83951C12.9963 6.64962 12.5435 5.98722 12.1246 5.36897C11.7014 4.75073 11.3248 4.18989 11.2867 4.11923C11.2486 4.05299 11.2063 4 11.1936 4C11.1809 4 11.0878 4.12807 10.9862 4.27821C10.9283 4.36045 10.8145 4.52749 10.681 4.72345ZM18.0066 6.52156C18.2394 6.18153 18.4636 5.89448 18.506 5.88565C18.544 5.8724 18.7091 5.86357 18.8741 5.85915C19.0645 5.85474 19.1999 5.87682 19.255 5.91656C19.3015 5.94748 19.4369 6.12412 19.5512 6.30076C19.6697 6.48182 19.8474 6.73353 19.9447 6.87043C20.0463 7.00291 20.1098 7.12214 20.0886 7.13539C20.0632 7.14864 19.5173 7.15305 18.8656 7.14422C18.4794 7.14159 18.1262 7.13895 17.8988 7.13726C17.7453 7.13611 17.6487 7.13539 17.6385 7.13539C17.6088 7.13539 17.7739 6.85718 18.0066 6.52156ZM10.4827 6.30517C10.6223 6.10204 10.7789 5.92098 10.8254 5.8989C10.8762 5.87682 11.0624 5.85915 11.2359 5.85915C11.5279 5.85915 11.5618 5.86799 11.6464 5.97839C11.7014 6.04463 11.8961 6.31842 12.0823 6.58338C12.2684 6.84835 12.4208 7.0824 12.4208 7.10448C12.4208 7.12214 12.3869 7.13981 12.3488 7.14864C12.3065 7.15747 11.7437 7.15747 9.92409 7.13539L10.0764 6.90576C10.1653 6.77769 10.3473 6.50831 10.4827 6.30517ZM14.7821 6.76886L14.5789 6.78211C13.995 7.65648 13.813 7.93911 13.8003 7.97444C13.7792 8.03185 13.9315 8.04068 15.0021 8.05393C15.9627 8.05834 16.2293 8.04951 16.2293 8.00535C16.2293 7.97885 16.0431 7.68298 15.8146 7.35619L15.4041 6.76003C15.0741 6.75561 14.8921 6.76003 14.7821 6.76886ZM19.1492 7.75364L19.712 7.7448V7.74039C20.0167 7.73597 20.2833 7.74039 20.3002 7.75364C20.3171 7.76688 20.3298 8.58827 20.3129 11.388L19.7839 11.6442C19.4919 11.7855 19.2296 11.9003 19.2042 11.9047C19.1619 11.9047 19.1492 11.4631 19.1492 7.75364ZM9.69558 7.81546C9.68712 7.84196 9.68289 8.65451 9.68712 9.61279L9.69135 11.3571C10.5123 11.7811 10.7747 11.9047 10.8001 11.9047C10.8424 11.9091 10.8551 11.4675 10.8551 9.83359V7.75805C9.86062 7.75805 9.70828 7.7713 9.69558 7.81546ZM11.4814 10.0279C11.4771 8.81348 11.4898 7.80221 11.511 7.78896C11.5321 7.7713 11.7987 7.75805 12.6747 7.75805V10.2752C12.6747 12.4832 12.6662 12.7923 12.6112 12.7923C12.5774 12.7923 12.3108 12.6687 11.4898 12.2403L11.4814 10.0279ZM17.3719 12.7923C17.52 12.7482 17.7866 12.6245 18.0616 12.4876L18.561 12.2403L18.5567 7.75805H17.3719V12.7923ZM13.521 13.256V8.64126H14.7059V13.8522L13.521 13.256ZM15.328 8.67217C15.3153 8.68984 15.311 9.84242 15.3153 11.2291C15.3153 12.6201 15.3322 13.7727 15.3491 13.7904C15.3703 13.8124 15.6242 13.7065 15.9204 13.5563L16.462 13.2869C16.479 9.83801 16.4747 8.7914 16.462 8.73841C16.4409 8.64126 16.424 8.63684 15.8908 8.63684C15.5903 8.63684 15.3364 8.65451 15.328 8.67217ZM7.92674 10.5048C7.92251 10.4827 8.12563 10.3768 8.37953 10.2619C8.63766 10.1515 8.8704 10.0588 8.89579 10.0544C8.93811 10.0544 8.95081 10.1736 8.95081 10.5137C8.95081 10.7698 8.93811 10.9818 8.91695 10.9818C8.90003 10.9818 8.71383 10.8934 8.50648 10.7875C8.29489 10.6815 8.08331 10.5799 8.0283 10.5667C7.97752 10.549 7.93097 10.5225 7.92674 10.5048ZM21.0957 10.5137C21.0957 10.7698 21.1084 10.9818 21.1254 10.9818C21.1465 10.9818 21.32 10.8979 21.5189 10.8007C21.7178 10.6991 21.9209 10.5976 21.9717 10.5755C22.0267 10.5534 22.0648 10.5181 22.0563 10.4916C22.0521 10.4651 21.849 10.3591 21.6035 10.2487L21.5181 10.2118C21.3107 10.1221 21.144 10.05 21.1254 10.05C21.1084 10.05 21.0957 10.2619 21.0957 10.5137ZM7.95636 21.5052L7.94367 16.5283C7.93943 13.7904 7.94367 11.5558 7.95636 11.5558C7.96906 11.5558 8.06638 11.6 8.17641 11.6618L8.21964 11.6836C8.40482 11.7767 8.98118 12.0667 9.58556 12.364L10.0945 12.6145C10.7184 12.9216 11.4735 13.2932 11.9765 13.5386C12.2753 13.6865 12.6133 13.8529 12.9276 14.0076C13.2986 14.1903 13.6368 14.3568 13.8384 14.4572C14.0157 14.5455 14.1786 14.6258 14.3011 14.6862C14.4358 14.7526 14.5217 14.7949 14.5239 14.7972C14.5324 14.7972 14.5366 17.0229 14.5324 19.7432C14.5324 22.4679 14.5282 24.698 14.5239 24.7024C14.5197 24.7068 14.1727 24.5478 13.7538 24.3447C13.3348 24.1416 12.7043 23.8324 12.3573 23.6602C12.0061 23.4836 11.7183 23.3423 11.7099 23.3423C11.7062 23.3423 11.5326 23.2586 11.3062 23.1495L11.2021 23.0994C10.9312 22.9625 10.3642 22.6798 9.94525 22.4723C9.52632 22.2647 8.90849 21.96 7.95636 21.5052ZM21.3902 11.8943C21.2162 11.9813 21.0154 12.0816 20.8418 12.1697C20.6661 12.2564 20.4144 12.3793 20.1638 12.5017C19.9681 12.5972 19.7723 12.6928 19.6147 12.7703C19.255 12.9469 18.5102 13.3134 17.9643 13.5828C17.4184 13.8566 16.644 14.2408 16.2505 14.4351C15.8527 14.625 15.5184 14.8105 15.5015 14.837C15.4845 14.8635 15.4676 17.0759 15.4676 19.7476C15.4676 22.4193 15.4845 24.6273 15.5015 24.6582C15.5226 24.7024 15.6919 24.6362 16.1447 24.4109L16.2484 24.3595C16.5861 24.192 17.0564 23.9588 17.3507 23.8192C17.6765 23.6602 18.1505 23.4262 18.4086 23.2981C18.6625 23.1744 19.31 22.8565 19.8474 22.5915L20.079 22.4783C20.5652 22.2407 21.1088 21.9749 21.3708 21.8496C21.5073 21.7814 21.6429 21.7141 21.7558 21.6581L21.7575 21.6573L21.759 21.6565C21.8931 21.59 21.9946 21.5396 22.0267 21.5228L22.1325 21.4654C22.1325 13.2649 22.1198 11.5779 22.0902 11.5735C22.0648 11.5647 21.904 11.6353 21.7305 11.7237C21.6532 11.763 21.5303 11.8244 21.3902 11.8943Z" fill="#010101"/>
<path d="M20.8418 12.1697C21.0154 12.0816 21.2162 11.9813 21.3902 11.8943C21.5303 11.8244 21.6532 11.763 21.7305 11.7237C21.904 11.6353 22.0648 11.5647 22.0902 11.5735C22.1198 11.5779 22.1325 13.2649 22.1325 21.4654L22.0267 21.5228C21.9946 21.5396 21.8931 21.59 21.759 21.6565L21.7575 21.6573L21.7558 21.6581C21.6429 21.7141 21.5073 21.7814 21.3708 21.8496C21.1088 21.9749 20.5652 22.2407 20.079 22.4783L19.8474 22.5915C19.31 22.8565 18.6625 23.1744 18.4086 23.2981C18.1505 23.4262 17.6765 23.6602 17.3507 23.8192C17.0564 23.9588 16.5861 24.192 16.2484 24.3595L16.1447 24.4109C15.6919 24.6362 15.5226 24.7024 15.5015 24.6582C15.4845 24.6273 15.4676 22.4193 15.4676 19.7476C15.4676 17.0759 15.4845 14.8635 15.5015 14.837C15.5184 14.8105 15.8527 14.625 16.2505 14.4351C16.644 14.2408 17.4184 13.8566 17.9643 13.5828C18.5102 13.3134 19.255 12.9469 19.6147 12.7703C19.7723 12.6928 19.9681 12.5972 20.1638 12.5017C20.4144 12.3793 20.6661 12.2564 20.8418 12.1697Z" fill="white"/>
<path d="M7.94367 16.5283L7.95636 21.5052C8.90849 21.96 9.52632 22.2647 9.94525 22.4723C10.3642 22.6798 10.9312 22.9625 11.2021 23.0994L11.3062 23.1495C11.5326 23.2586 11.7062 23.3423 11.7099 23.3423C11.7183 23.3423 12.0061 23.4836 12.3573 23.6602C12.7043 23.8324 13.3348 24.1416 13.7538 24.3447C14.1727 24.5478 14.5197 24.7068 14.5239 24.7024C14.5282 24.698 14.5324 22.4679 14.5324 19.7432C14.5366 17.0229 14.5324 14.7972 14.5239 14.7972C14.5217 14.7949 14.4358 14.7526 14.3011 14.6862C14.1786 14.6258 14.0157 14.5455 13.8384 14.4572C13.6368 14.3568 13.2986 14.1903 12.9276 14.0076C12.6133 13.8529 12.2753 13.6865 11.9765 13.5386C11.4735 13.2932 10.7184 12.9216 10.0945 12.6145L9.58556 12.364C8.98118 12.0667 8.40482 11.7767 8.21964 11.6836L8.17641 11.6618C8.06638 11.6 7.96906 11.5558 7.95636 11.5558C7.94367 11.5558 7.93943 13.7904 7.94367 16.5283Z" fill="white"/>
<path d="M11.511 7.78896C11.4898 7.80221 11.4771 8.81348 11.4814 10.0279L11.4898 12.2403C12.3108 12.6687 12.5774 12.7923 12.6112 12.7923C12.6662 12.7923 12.6747 12.4832 12.6747 10.2752V7.75805C11.7987 7.75805 11.5321 7.7713 11.511 7.78896Z" fill="white"/>
<path d="M9.68712 9.61279C9.68289 8.65451 9.68712 7.84196 9.69558 7.81546C9.70828 7.7713 9.86062 7.75805 10.8551 7.75805V9.83359C10.8551 11.4675 10.8424 11.9091 10.8001 11.9047C10.7747 11.9047 10.5123 11.7811 9.69135 11.3571L9.68712 9.61279Z" fill="white"/>
<path d="M10.8254 5.8989C10.7789 5.92098 10.6223 6.10204 10.4827 6.30517C10.3473 6.50831 10.1653 6.77769 10.0764 6.90576L9.92409 7.13539C11.7437 7.15747 12.3065 7.15747 12.3488 7.14864C12.3869 7.13981 12.4208 7.12214 12.4208 7.10448C12.4208 7.0824 12.2684 6.84835 12.0823 6.58338C11.8961 6.31842 11.7014 6.04463 11.6464 5.97839C11.5618 5.86799 11.5279 5.85915 11.2359 5.85915C11.0624 5.85915 10.8762 5.87682 10.8254 5.8989Z" fill="white"/>
<path d="M14.5789 6.78211L14.7821 6.76886C14.8921 6.76003 15.0741 6.75561 15.4041 6.76003L15.8146 7.35619C16.0431 7.68298 16.2293 7.97885 16.2293 8.00535C16.2293 8.04951 15.9627 8.05834 15.0021 8.05393C13.9315 8.04068 13.7792 8.03185 13.8003 7.97444C13.813 7.93911 13.995 7.65648 14.5789 6.78211Z" fill="white"/>
<path d="M14.7059 8.64126H13.521V13.256L14.7059 13.8522V8.64126Z" fill="white"/>
<path d="M15.3153 11.2291C15.311 9.84242 15.3153 8.68984 15.328 8.67217C15.3364 8.65451 15.5903 8.63684 15.8908 8.63684C16.424 8.63684 16.4409 8.64126 16.462 8.73841C16.4747 8.7914 16.479 9.83801 16.462 13.2869L15.9204 13.5563C15.6242 13.7065 15.3703 13.8124 15.3491 13.7904C15.3322 13.7727 15.3153 12.6201 15.3153 11.2291Z" fill="white"/>
<path d="M18.506 5.88565C18.4636 5.89448 18.2394 6.18153 18.0066 6.52156C17.7739 6.85718 17.6088 7.13539 17.6385 7.13539L17.8988 7.13726C18.1262 7.13895 18.4794 7.14159 18.8656 7.14422C19.5173 7.15305 20.0632 7.14864 20.0886 7.13539C20.1098 7.12214 20.0463 7.00291 19.9447 6.87043C19.8474 6.73353 19.6697 6.48182 19.5512 6.30076C19.4369 6.12412 19.3015 5.94748 19.255 5.91656C19.1999 5.87682 19.0645 5.85474 18.8741 5.85915C18.7091 5.86357 18.544 5.8724 18.506 5.88565Z" fill="white"/>
<path d="M19.712 7.7448L19.1492 7.75364C19.1492 11.4631 19.1619 11.9047 19.2042 11.9047C19.2296 11.9003 19.4919 11.7855 19.7839 11.6442L20.3129 11.388C20.3298 8.58827 20.3171 7.76688 20.3002 7.75364C20.2833 7.74039 20.0167 7.73597 19.712 7.74039V7.7448Z" fill="white"/>
<path d="M18.0616 12.4876C17.7866 12.6245 17.52 12.7482 17.3719 12.7923V7.75805H18.5567L18.561 12.2403L18.0616 12.4876Z" fill="white"/>
<path d="M21.1254 10.9818C21.1084 10.9818 21.0957 10.7698 21.0957 10.5137C21.0957 10.2619 21.1084 10.05 21.1254 10.05C21.144 10.05 21.3107 10.1221 21.5181 10.2118L21.6035 10.2487C21.849 10.3591 22.0521 10.4651 22.0563 10.4916C22.0648 10.5181 22.0267 10.5534 21.9717 10.5755C21.9209 10.5976 21.7178 10.6991 21.5189 10.8007C21.32 10.8979 21.1465 10.9818 21.1254 10.9818Z" fill="white"/>
<path d="M8.37953 10.2619C8.12563 10.3768 7.92251 10.4827 7.92674 10.5048C7.93097 10.5225 7.97752 10.549 8.0283 10.5667C8.08331 10.5799 8.29489 10.6815 8.50648 10.7875C8.71383 10.8934 8.90003 10.9818 8.91695 10.9818C8.93811 10.9818 8.95081 10.7698 8.95081 10.5137C8.95081 10.1736 8.93811 10.0544 8.89579 10.0544C8.8704 10.0588 8.63766 10.1515 8.37953 10.2619Z" fill="white"/>
</svg>
