<svg width="16" height="22" viewBox="0 0 37 36" fill="none" xmlns="http://www.w3.org/2000/svg">
<path fill-rule="evenodd" clip-rule="evenodd" d="M3.68097 0.723451C3.57074 0.885238 3.44707 1.06674 3.33034 1.23649C3.20341 1.42413 3.03631 1.67136 2.86919 1.91861C2.702 2.16596 2.53481 2.41332 2.40783 2.60105L1.95081 3.28112L1.95504 5.10052C1.40915 5.36549 0.969056 5.58629 0.626289 5.75851L0 6.07205L0.0253901 18.0793C1.6996 18.9049 2.84657 19.47 3.61644 19.8494C4.37021 20.2208 4.76248 20.414 4.93414 20.4993C5.28537 20.6715 5.68315 20.8658 5.8228 20.932C5.94013 20.9877 6.3293 21.1805 6.74686 21.3874C6.82627 21.4267 6.90672 21.4666 6.98651 21.5061C7.48585 21.7534 7.92171 21.9742 7.95133 21.9963C7.98519 22.0228 8.25602 21.908 8.79767 21.6342C9.23354 21.4134 10.1687 20.9497 10.8797 20.6008C11.5906 20.252 12.6358 19.7353 13.2071 19.4527C13.2709 19.4211 13.3382 19.3878 13.4081 19.3532C13.9645 19.0778 14.6865 18.7204 15.1113 18.5164C15.3783 18.3882 15.6189 18.2711 15.7801 18.1925C15.9076 18.1304 15.9873 18.0925 15.9873 18.0925C15.9915 18.0881 16 15.3766 16 12.069V6.04997C14.6078 5.36107 14.1761 5.13585 14.1465 5.10936C14.1042 5.06961 14.0915 4.83998 14.0957 4.16432V3.26787C13.0251 1.70901 12.53 0.984777 12.3057 0.653574C12.0815 0.317955 11.8783 0.0441604 11.8529 0.0441604C11.8276 0.0441604 11.3875 0.666822 10.8712 1.42638C10.6332 1.77443 10.4016 2.11498 10.2127 2.39268C9.99174 2.71748 9.82928 2.95629 9.78365 3.02057L9.63131 3.23696C9.47897 3.03823 9.4028 2.93225 9.36472 2.87043C9.32663 2.8086 9.08543 2.4509 8.82729 2.07554C8.56916 1.70017 8.2941 1.28507 8.2137 1.16142C8.1333 1.03335 8.04866 0.927368 8.02327 0.927368C7.99788 0.927368 7.71436 1.31598 7.38429 1.79733C7.22855 2.0274 7.06894 2.26353 6.93457 2.46231C6.78782 2.6794 6.67119 2.85195 6.62259 2.92342C6.53372 3.06473 6.44062 3.17955 6.41523 3.17955C6.38984 3.17955 6.26289 3.0294 6.13171 2.83951C5.9963 2.64962 5.54351 1.98722 5.12457 1.36897C4.7014 0.750727 4.32478 0.18989 4.2867 0.119233C4.24861 0.0529925 4.20629 0 4.1936 0C4.1809 0 4.08781 0.128065 3.98625 0.27821C3.9283 0.360454 3.81448 0.527495 3.68097 0.723451ZM11.0066 2.52156C11.2394 2.18153 11.4636 1.89448 11.506 1.88565C11.544 1.8724 11.7091 1.86357 11.8741 1.85915C12.0645 1.85474 12.1999 1.87682 12.255 1.91656C12.3015 1.94748 12.4369 2.12412 12.5512 2.30076C12.6697 2.48182 12.8474 2.73353 12.9447 2.87043C13.0463 3.00291 13.1098 3.12214 13.0886 3.13539C13.0632 3.14864 12.5173 3.15305 11.8656 3.14422C11.4794 3.14159 11.1262 3.13895 10.8988 3.13726C10.7453 3.13611 10.6487 3.13539 10.6385 3.13539C10.6088 3.13539 10.7739 2.85718 11.0066 2.52156ZM3.48268 2.30517C3.62232 2.10204 3.77889 1.92098 3.82544 1.8989C3.87622 1.87682 4.06242 1.85915 4.23592 1.85915C4.5279 1.85915 4.56176 1.86799 4.64639 1.97839C4.7014 2.04463 4.89606 2.31842 5.08225 2.58338C5.26845 2.84835 5.42079 3.0824 5.42079 3.10448C5.42079 3.12214 5.38693 3.13981 5.34885 3.14864C5.30653 3.15747 4.74372 3.15747 2.92409 3.13539L3.07643 2.90576C3.1653 2.77769 3.34726 2.50831 3.48268 2.30517ZM7.78207 2.76886L7.57895 2.78211C6.99497 3.65648 6.81301 3.93911 6.80032 3.97444C6.77916 4.03185 6.9315 4.04068 8.00212 4.05393C8.96271 4.05834 9.2293 4.04951 9.2293 4.00535C9.2293 3.97885 9.04311 3.68298 8.8146 3.35619L8.40413 2.76003C8.07405 2.75561 7.89209 2.76003 7.78207 2.76886ZM12.1492 3.75364L12.712 3.7448V3.74039C13.0167 3.73597 13.2833 3.74039 13.3002 3.75364C13.3171 3.76688 13.3298 4.58827 13.3129 7.38803L12.7839 7.64417C12.4919 7.78548 12.2296 7.9003 12.2042 7.90471C12.1619 7.90471 12.1492 7.46311 12.1492 3.75364ZM2.69558 3.81546C2.68712 3.84196 2.68289 4.65451 2.68712 5.61279L2.69135 7.35712C3.5123 7.78106 3.77466 7.90471 3.80005 7.90471C3.84237 7.90913 3.85506 7.46752 3.85506 5.83359V3.75805C2.86062 3.75805 2.70828 3.7713 2.69558 3.81546ZM4.48135 6.0279C4.47712 4.81348 4.48982 3.80221 4.51098 3.78896C4.53213 3.7713 4.79873 3.75805 5.67469 3.75805V6.27519C5.67469 8.48321 5.66623 8.79234 5.61121 8.79234C5.57736 8.79234 5.31076 8.66869 4.48982 8.24033L4.48135 6.0279ZM10.3719 8.79234C10.52 8.74817 10.7866 8.62453 11.0616 8.48763L11.561 8.24033L11.5567 3.75805H10.3719V8.79234ZM6.52103 9.25602V4.64126H7.7059V9.85219L6.52103 9.25602ZM8.32796 4.67217C8.31526 4.68984 8.31103 5.84242 8.31526 7.22906C8.31526 8.62011 8.33219 9.7727 8.34911 9.79036C8.37027 9.81244 8.62417 9.70646 8.92039 9.55631L9.46205 9.28693C9.47897 5.83801 9.47474 4.7914 9.46205 4.73841C9.44089 4.64126 9.42396 4.63684 8.89077 4.63684C8.59032 4.63684 8.33642 4.65451 8.32796 4.67217ZM0.926739 6.50483C0.922507 6.48275 1.12563 6.37676 1.37953 6.26195C1.63766 6.15154 1.8704 6.05881 1.89579 6.05439C1.93811 6.05439 1.95081 6.17363 1.95081 6.51366C1.95081 6.76979 1.93811 6.98176 1.91695 6.98176C1.90003 6.98176 1.71383 6.89344 1.50648 6.78745C1.29489 6.68147 1.08331 6.5799 1.0283 6.56665C0.977519 6.54899 0.93097 6.52249 0.926739 6.50483ZM14.0957 6.51366C14.0957 6.76979 14.1084 6.98176 14.1254 6.98176C14.1465 6.98176 14.32 6.89786 14.5189 6.8007C14.7178 6.69913 14.9209 6.59756 14.9717 6.57548C15.0267 6.5534 15.0648 6.51808 15.0563 6.49158C15.0521 6.46508 14.849 6.3591 14.6035 6.2487L14.5181 6.21178C14.3107 6.12207 14.144 6.04998 14.1254 6.04998C14.1084 6.04998 14.0957 6.26195 14.0957 6.51366ZM0.95636 17.5052L0.943665 12.5283C0.939434 9.79036 0.943665 7.55584 0.95636 7.55584C0.969055 7.55584 1.06638 7.60001 1.17641 7.66183L1.21964 7.68357C1.40482 7.77674 1.98118 8.0667 2.58556 8.36398L3.09454 8.61447C3.7184 8.92156 4.47348 9.29324 4.97646 9.53865C5.27529 9.68647 5.61327 9.85286 5.92756 10.0076C6.29861 10.1903 6.6368 10.3568 6.8384 10.4572C7.01569 10.5455 7.17859 10.6258 7.30108 10.6862C7.43582 10.7526 7.52172 10.7949 7.52394 10.7972C7.5324 10.7972 7.53663 13.0229 7.5324 15.7432C7.5324 18.4679 7.52817 20.698 7.52394 20.7024C7.5197 20.7068 7.17271 20.5478 6.75377 20.3447C6.33483 20.1416 5.70431 19.8324 5.35731 19.6602C5.00608 19.4836 4.71833 19.3423 4.70986 19.3423C4.70618 19.3423 4.53256 19.2586 4.30622 19.1495L4.20206 19.0994C3.93123 18.9625 3.36419 18.6798 2.94525 18.4723C2.52632 18.2647 1.90849 17.96 0.95636 17.5052ZM14.3902 7.89434C14.2162 7.98129 14.0154 8.08158 13.8418 8.16967C13.6661 8.25641 13.4144 8.3793 13.1638 8.50166C12.9681 8.59722 12.7723 8.69285 12.6147 8.77026C12.255 8.9469 11.5102 9.31343 10.9643 9.58281C10.4184 9.8566 9.64401 10.2408 9.25046 10.4351C8.85268 10.625 8.51838 10.8105 8.50145 10.837C8.48453 10.8635 8.4676 13.0759 8.4676 15.7476C8.4676 18.4193 8.48453 20.6273 8.50145 20.6582C8.52261 20.7024 8.69188 20.6362 9.14467 20.4109L9.24841 20.3595C9.58614 20.192 10.0564 19.9588 10.3507 19.8192C10.6765 19.6602 11.1505 19.4262 11.4086 19.2981C11.6625 19.1744 12.31 18.8565 12.8474 18.5915L13.079 18.4783C13.5652 18.2407 14.1088 17.9749 14.3708 17.8496C14.5073 17.7814 14.6429 17.7141 14.7558 17.6581L14.7575 17.6573L14.759 17.6565C14.8931 17.59 14.9946 17.5396 15.0267 17.5228L15.1325 17.4654C15.1325 9.26485 15.1198 7.57792 15.0902 7.57351C15.0648 7.56468 14.904 7.63533 14.7305 7.72365C14.6532 7.76303 14.5303 7.82439 14.3902 7.89434Z" fill="#010101"/>
<path d="M13.8418 8.16967C14.0154 8.08158 14.2162 7.98129 14.3902 7.89434C14.5303 7.82439 14.6532 7.76303 14.7305 7.72365C14.904 7.63533 15.0648 7.56468 15.0902 7.57351C15.1198 7.57792 15.1325 9.26485 15.1325 17.4654L15.0267 17.5228C14.9946 17.5396 14.8931 17.59 14.759 17.6565L14.7575 17.6573L14.7558 17.6581C14.6429 17.7141 14.5073 17.7814 14.3708 17.8496C14.1088 17.9749 13.5652 18.2407 13.079 18.4783L12.8474 18.5915C12.31 18.8565 11.6625 19.1744 11.4086 19.2981C11.1505 19.4262 10.6765 19.6602 10.3507 19.8192C10.0564 19.9588 9.58614 20.192 9.24841 20.3595L9.14467 20.4109C8.69188 20.6362 8.52261 20.7024 8.50145 20.6582C8.48453 20.6273 8.4676 18.4193 8.4676 15.7476C8.4676 13.0759 8.48453 10.8635 8.50145 10.837C8.51838 10.8105 8.85268 10.625 9.25046 10.4351C9.64401 10.2408 10.4184 9.8566 10.9643 9.58281C11.5102 9.31343 12.255 8.9469 12.6147 8.77026C12.7723 8.69285 12.9681 8.59722 13.1638 8.50166C13.4144 8.3793 13.6661 8.25641 13.8418 8.16967Z" fill="white"/>
<path d="M0.943665 12.5283L0.95636 17.5052C1.90849 17.96 2.52632 18.2647 2.94525 18.4723C3.36419 18.6798 3.93123 18.9625 4.20206 19.0994L4.30622 19.1495C4.53256 19.2586 4.70618 19.3423 4.70986 19.3423C4.71833 19.3423 5.00608 19.4836 5.35731 19.6602C5.70431 19.8324 6.33483 20.1416 6.75377 20.3447C7.17271 20.5478 7.5197 20.7068 7.52394 20.7024C7.52817 20.698 7.5324 18.4679 7.5324 15.7432C7.53663 13.0229 7.5324 10.7972 7.52394 10.7972C7.52172 10.7949 7.43582 10.7526 7.30108 10.6862C7.17859 10.6258 7.01569 10.5455 6.8384 10.4572C6.6368 10.3568 6.29861 10.1903 5.92756 10.0076C5.61327 9.85286 5.27529 9.68647 4.97646 9.53865C4.47348 9.29324 3.7184 8.92156 3.09454 8.61447L2.58556 8.36398C1.98118 8.0667 1.40482 7.77674 1.21964 7.68357L1.17641 7.66183C1.06638 7.60001 0.969055 7.55584 0.95636 7.55584C0.943665 7.55584 0.939434 9.79036 0.943665 12.5283Z" fill="white"/>
<path d="M4.51098 3.78896C4.48982 3.80221 4.47712 4.81348 4.48135 6.0279L4.48982 8.24033C5.31076 8.66869 5.57736 8.79234 5.61121 8.79234C5.66623 8.79234 5.67469 8.48321 5.67469 6.27519V3.75805C4.79873 3.75805 4.53213 3.7713 4.51098 3.78896Z" fill="white"/>
<path d="M2.68712 5.61279C2.68289 4.65451 2.68712 3.84196 2.69558 3.81546C2.70828 3.7713 2.86062 3.75805 3.85506 3.75805V5.83359C3.85506 7.46752 3.84237 7.90913 3.80005 7.90471C3.77466 7.90471 3.5123 7.78106 2.69135 7.35712L2.68712 5.61279Z" fill="white"/>
<path d="M3.82544 1.8989C3.77889 1.92098 3.62232 2.10204 3.48268 2.30517C3.34726 2.50831 3.1653 2.77769 3.07643 2.90576L2.92409 3.13539C4.74372 3.15747 5.30653 3.15747 5.34885 3.14864C5.38693 3.13981 5.42079 3.12214 5.42079 3.10448C5.42079 3.0824 5.26845 2.84835 5.08225 2.58338C4.89606 2.31842 4.7014 2.04463 4.64639 1.97839C4.56176 1.86799 4.5279 1.85915 4.23592 1.85915C4.06242 1.85915 3.87622 1.87682 3.82544 1.8989Z" fill="white"/>
<path d="M7.57895 2.78211L7.78207 2.76886C7.89209 2.76003 8.07405 2.75561 8.40413 2.76003L8.8146 3.35619C9.04311 3.68298 9.2293 3.97885 9.2293 4.00535C9.2293 4.04951 8.96271 4.05834 8.00212 4.05393C6.9315 4.04068 6.77916 4.03185 6.80032 3.97444C6.81301 3.93911 6.99497 3.65648 7.57895 2.78211Z" fill="white"/>
<path d="M7.7059 4.64126H6.52103V9.25602L7.7059 9.85219V4.64126Z" fill="white"/>
<path d="M8.31526 7.22906C8.31103 5.84242 8.31526 4.68984 8.32796 4.67217C8.33642 4.65451 8.59032 4.63684 8.89077 4.63684C9.42396 4.63684 9.44089 4.64126 9.46205 4.73841C9.47474 4.7914 9.47897 5.83801 9.46205 9.28693L8.92039 9.55631C8.62417 9.70646 8.37027 9.81244 8.34911 9.79036C8.33219 9.7727 8.31526 8.62011 8.31526 7.22906Z" fill="white"/>
<path d="M11.506 1.88565C11.4636 1.89448 11.2394 2.18153 11.0066 2.52156C10.7739 2.85718 10.6088 3.13539 10.6385 3.13539L10.8988 3.13726C11.1262 3.13895 11.4794 3.14159 11.8656 3.14422C12.5173 3.15305 13.0632 3.14864 13.0886 3.13539C13.1098 3.12214 13.0463 3.00291 12.9447 2.87043C12.8474 2.73353 12.6697 2.48182 12.5512 2.30076C12.4369 2.12412 12.3015 1.94748 12.255 1.91656C12.1999 1.87682 12.0645 1.85474 11.8741 1.85915C11.7091 1.86357 11.544 1.8724 11.506 1.88565Z" fill="white"/>
<path d="M12.712 3.7448L12.1492 3.75364C12.1492 7.46311 12.1619 7.90471 12.2042 7.90471C12.2296 7.9003 12.4919 7.78548 12.7839 7.64417L13.3129 7.38803C13.3298 4.58827 13.3171 3.76688 13.3002 3.75364C13.2833 3.74039 13.0167 3.73597 12.712 3.74039V3.7448Z" fill="white"/>
<path d="M11.0616 8.48763C10.7866 8.62453 10.52 8.74817 10.3719 8.79234V3.75805H11.5567L11.561 8.24033L11.0616 8.48763Z" fill="white"/>
<path d="M14.1254 6.98176C14.1084 6.98176 14.0957 6.76979 14.0957 6.51366C14.0957 6.26195 14.1084 6.04998 14.1254 6.04998C14.144 6.04998 14.3107 6.12207 14.5181 6.21178L14.6035 6.2487C14.849 6.3591 15.0521 6.46508 15.0563 6.49158C15.0648 6.51808 15.0267 6.5534 14.9717 6.57548C14.9209 6.59756 14.7178 6.69913 14.5189 6.8007C14.32 6.89786 14.1465 6.98176 14.1254 6.98176Z" fill="white"/>
<path d="M1.37953 6.26195C1.12563 6.37676 0.922507 6.48275 0.926739 6.50483C0.93097 6.52249 0.977519 6.54899 1.0283 6.56665C1.08331 6.5799 1.29489 6.68147 1.50648 6.78745C1.71383 6.89344 1.90003 6.98176 1.91695 6.98176C1.93811 6.98176 1.95081 6.76979 1.95081 6.51366C1.95081 6.17363 1.93811 6.05439 1.89579 6.05439C1.8704 6.05881 1.63766 6.15154 1.37953 6.26195Z" fill="white"/>
</svg>
