<svg width="37" height="36" viewBox="0 0 37 36" fill="none" xmlns="http://www.w3.org/2000/svg">
<path d="M0.857178 13.0286C0.857178 8.46814 0.857178 6.18793 1.7447 4.44608C2.52538 2.9139 3.77108 1.6682 5.30325 0.887518C7.04511 0 9.32532 0 13.8857 0H23.8286C28.389 0 30.6692 0 32.4111 0.887518C33.9433 1.6682 35.189 2.9139 35.9697 4.44608C36.8572 6.18793 36.8572 8.46814 36.8572 13.0286V22.9714C36.8572 27.5319 36.8572 29.8121 35.9697 31.5539C35.189 33.0861 33.9433 34.3318 32.4111 35.1125C30.6692 36 28.389 36 23.8286 36H13.8857C9.32532 36 7.04511 36 5.30325 35.1125C3.77108 34.3318 2.52538 33.0861 1.7447 31.5539C0.857178 29.8121 0.857178 27.5319 0.857178 22.9714V13.0286Z" fill="#001E36"/>
<path d="M8.57147 26.378V10.5472C8.57147 10.4395 8.61647 10.378 8.72147 10.378C10.2716 10.378 11.821 10.2856 13.3715 10.2856C15.8874 10.2856 18.6116 11.1459 19.5665 13.778C19.7915 14.4241 19.9115 15.0856 19.9115 15.778C19.9115 17.101 19.6115 18.1933 19.0115 19.0549C17.3354 21.4615 14.4305 21.4241 11.8265 21.4241V26.3626C11.8468 26.5088 11.7222 26.578 11.6015 26.578H8.75147C8.63147 26.578 8.57147 26.5164 8.57147 26.378ZM11.8415 13.3472V18.5164C12.874 18.5921 13.9544 18.6003 14.9465 18.2703C16.0417 17.9543 16.6415 17.0063 16.6415 15.8703C16.6719 14.9022 16.1444 13.9734 15.2465 13.6241C14.2664 13.2166 12.8995 13.1922 11.8415 13.3472Z" fill="#31A8FF"/>
<path d="M29.2672 17.4951C28.8133 17.2559 28.3299 17.081 27.8302 16.975C27.1881 16.8239 24.6555 16.2947 24.6545 17.619C24.677 18.3583 25.8506 18.7205 26.3691 18.9317C28.1895 19.5567 30.2495 20.6739 30.209 22.9196C30.2647 25.7153 27.556 26.8329 25.2341 26.8331C24.0253 26.8456 22.7661 26.6584 21.6599 26.1396C21.5543 26.0837 21.4863 25.9641 21.4908 25.8423V23.1673C21.4789 23.06 21.594 22.9663 21.684 23.0434C22.7679 23.6989 24.0527 24.0172 25.3065 24.0342C25.8601 24.0342 26.9571 23.9805 26.9488 23.1673C26.9488 22.3868 25.6364 22.028 25.1133 21.8297C24.355 21.559 23.6361 21.1841 22.9761 20.7151C22.0537 20.0572 21.4751 19.0024 21.4908 17.8419C21.4854 15.2095 23.9788 14.028 26.2243 14.0274C27.274 14.0188 28.4012 14.0965 29.3784 14.5228C29.519 14.5642 29.5481 14.7122 29.5475 14.8448V17.3465C29.5564 17.5018 29.3839 17.5547 29.2672 17.4951Z" fill="#31A8FF"/>
</svg>
