<svg width="37" height="36" viewBox="0 0 37 36" fill="none" xmlns="http://www.w3.org/2000/svg">
<path d="M18.8571 36C28.7982 36 36.8571 27.9411 36.8571 18C36.8571 8.05887 28.7982 0 18.8571 0C8.91599 0 0.857117 8.05887 0.857117 18C0.857117 27.9411 8.91599 36 18.8571 36Z" fill="#4353FF"/>
<path d="M23.5438 15.3513L21.849 20.4925C21.849 20.0988 20.6802 11.5713 20.6802 11.5713C17.992 11.5713 16.5661 13.405 15.8181 15.3513L13.7493 20.5038C13.7493 20.1325 13.4571 15.3963 13.4571 15.3963C13.3573 14.371 12.8703 13.4165 12.0884 12.7136C11.3065 12.0108 10.2839 11.6083 9.21436 11.5825L11.4117 24.4975C14.2168 24.4975 15.7362 22.6638 16.5193 20.7175L18.2725 16.33C18.2725 16.51 19.4413 24.4975 19.4413 24.4975C20.5884 24.4961 21.7051 24.1432 22.6298 23.4898C23.5544 22.8365 24.2389 21.9167 24.584 20.8638L28.5579 11.5713C25.7528 11.5713 24.2801 13.405 23.5321 15.3513H23.5438Z" fill="white"/>
</svg>
