<svg width="37" height="36" viewBox="0 0 37 36" fill="none" xmlns="http://www.w3.org/2000/svg">
<path d="M0.857178 13.0286C0.857178 8.46814 0.857178 6.18793 1.7447 4.44608C2.52538 2.9139 3.77108 1.6682 5.30325 0.887518C7.04511 0 9.32532 0 13.8857 0H23.8286C28.389 0 30.6692 0 32.4111 0.887518C33.9433 1.6682 35.189 2.9139 35.9697 4.44608C36.8572 6.18793 36.8572 8.46814 36.8572 13.0286V22.9714C36.8572 27.5319 36.8572 29.8121 35.9697 31.5539C35.189 33.0861 33.9433 34.3318 32.4111 35.1125C30.6692 36 28.389 36 23.8286 36H13.8857C9.32532 36 7.04511 36 5.30325 35.1125C3.77108 34.3318 2.52538 33.0861 1.7447 31.5539C0.857178 29.8121 0.857178 27.5319 0.857178 22.9714V13.0286Z" fill="#470137"/>
<path d="M19.6884 10.5863L15.1965 18.1905L20.0023 26.2653C20.1022 26.4484 20.0023 26.4888 19.8574 26.4888H16.4282C16.1866 26.4888 16.0176 26.48 15.921 26.3148C15.5987 25.6708 15.2767 25.031 14.955 24.3952C14.6327 23.7597 14.2906 23.1115 13.9286 22.4508C13.5664 21.7906 13.2081 21.1218 12.8539 20.4445C12.5317 21.1051 12.1734 21.7656 11.8275 22.426C11.4812 23.0867 11.1391 23.7431 10.8012 24.3952C10.4631 25.0477 10.117 25.6958 9.76276 26.3396C9.69824 26.4882 9.58537 26.5035 9.42461 26.5035H6.11611C5.98612 26.5035 5.97043 26.4058 6.04367 26.29L10.7046 18.4382L6.16438 10.5615C6.0819 10.4492 6.15289 10.3294 6.28515 10.3386H9.69026C9.8377 10.3303 9.968 10.3859 10.0525 10.512C10.3423 11.1726 10.6643 11.8331 11.0185 12.4936C11.3725 13.1542 11.7307 13.8065 12.0932 14.4503C12.4554 15.0943 12.8137 15.7466 13.1196 16.4071C13.4414 15.7302 13.7675 15.0697 14.0977 14.4256C14.4275 13.7816 14.7656 13.1334 15.1119 12.4812C15.458 11.829 15.7921 11.1809 16.1142 10.5368C16.157 10.3955 16.2593 10.3239 16.404 10.3386H19.5676C19.6884 10.3386 19.7384 10.5035 19.6884 10.5863Z" fill="#FF61F6"/>
<path d="M26.6192 26.8104C24.4894 26.8436 22.2586 25.9667 21.1372 24.0238C20.5896 23.0911 20.3159 21.9228 20.3161 20.519C20.307 19.3822 20.5902 18.263 21.1372 17.2742C22.5485 14.7514 25.3917 13.8062 28.0924 14.0542V9.17468C28.0924 9.05934 28.1407 9.0013 28.2373 9.0013H31.2802C31.3633 8.98911 31.4369 9.06459 31.4251 9.14989V23.7885C31.4251 24.3925 31.4849 24.9943 31.5217 25.5967C31.5276 25.6996 31.4681 25.8013 31.3768 25.8444C29.8733 26.4875 28.2465 26.8029 26.6192 26.8104ZM28.0924 23.739V16.977C25.8866 16.3641 23.7451 18.0442 23.7454 20.3704C23.693 22.7753 25.7661 24.4368 28.0924 23.739Z" fill="#FF61F6"/>
</svg>
